<svg width="30" height="26" viewBox="0 0 30 26" fill="none" xmlns="http://www.w3.org/2000/svg">
<path d="M13.3833 1.9617C11.833 0.629392 9.83727 -0.0691954 7.7945 0.00541554C5.75174 0.0800265 3.81227 0.922346 2.3633 2.3642C0.844457 3.89179 -0.0055979 5.96001 2.77459e-05 8.11416C0.0056534 10.2683 0.866499 12.3321 2.3933 13.8517L14.1608 25.6217C14.3952 25.856 14.7131 25.9877 15.0446 25.9877C15.376 25.9877 15.6939 25.856 15.9283 25.6217L27.6358 13.9217C29.1539 12.3942 30.0035 10.3265 29.9978 8.17299C29.9922 6.01945 29.1318 3.95623 27.6058 2.4367C26.8527 1.67905 25.9578 1.07723 24.972 0.665648C23.9862 0.254064 22.929 0.0407833 21.8608 0.0379972C20.7925 0.0352111 19.7342 0.242974 18.7463 0.64941C17.7584 1.05585 16.8603 1.65299 16.1033 2.4067L16.0333 2.4767L12.8983 7.2817L18.3033 11.8442C18.4358 11.9556 18.5438 12.0934 18.6203 12.2487C18.6967 12.4041 18.7401 12.5736 18.7476 12.7466C18.7552 12.9196 18.7267 13.0923 18.6639 13.2537C18.6012 13.4151 18.5057 13.5617 18.3833 13.6842L14.6333 17.4342C14.3989 17.6689 14.0809 17.8009 13.7492 17.8011C13.4175 17.8014 13.0993 17.6698 12.8646 17.4355C12.6298 17.2011 12.4978 16.883 12.4976 16.5513C12.4974 16.2196 12.6289 15.9014 12.8633 15.6667L15.6533 12.8742L10.4433 8.4792C10.2102 8.28278 10.0568 8.00792 10.0122 7.70635C9.96749 7.40477 10.0346 7.09727 10.2008 6.8417L13.3833 1.9617Z" fill="black"/>
</svg>
