<svg width="30" height="30" viewBox="0 0 30 30" fill="none" xmlns="http://www.w3.org/2000/svg">
<path d="M24.5343 0.528584L14.6937 10.3692C12.8299 9.47633 10.735 9.1839 8.69804 9.5322C6.66103 9.88049 4.7823 10.8524 3.32107 12.3137C-0.579804 16.2146 -0.579804 22.555 3.32107 26.4558C7.22194 30.3567 13.5623 30.3567 17.4632 26.4558C18.9245 24.9946 19.8964 23.1159 20.2447 21.0789C20.593 19.0419 20.3006 16.947 19.4077 15.0832L19.8202 14.6707H24.5343V9.95668H29.2483L29.2012 0.481444L24.5343 0.528584ZM13.9277 22.9203C11.9831 24.8648 8.80115 24.8648 6.8566 22.9203C4.91206 20.9758 4.91206 17.7938 6.8566 15.8492C8.80115 13.9047 11.9831 13.9047 13.9277 15.8492C15.8722 17.7938 15.8722 20.9758 13.9277 22.9203Z" fill="black"/>
</svg>
